<svg width="16" height="16" viewBox="0 0 16 16" fill="none" xmlns="http://www.w3.org/2000/svg">
<path d="M0 8.04145L1.05451e-06 0L2.07254 2.71781e-07C5.36908 7.04069e-07 8.04145 2.67237 8.04145 5.96891V8.04145L0 8.04145Z" fill="url(#paint0_linear_320_121)"/>
<path d="M1.33549e-06 16L1.2449e-06 13.9275C1.1008e-06 10.6309 2.67237 7.95855 5.96891 7.95855L8.04145 7.95855V16H1.33549e-06Z" fill="url(#paint1_linear_320_121)"/>
<path d="M16 7.95855V16H13.9275C10.6309 16 7.95855 13.3276 7.95855 10.0311L7.95855 7.95855L16 7.95855Z" fill="url(#paint2_linear_320_121)"/>
<path d="M16 9.83992e-07V2.07254C16 5.36908 13.3276 8.04145 10.0311 8.04145H7.95855L7.95855 6.32489e-07L16 9.83992e-07Z" fill="url(#paint3_linear_320_121)"/>
<defs>
<linearGradient id="paint0_linear_320_121" x1="4.07798" y1="4.13769e-07" x2="24.8705" y2="30.1762" gradientUnits="userSpaceOnUse">
<stop stop-color="#E1C1FF"/>
<stop offset="1" stop-color="#FFC368"/>
</linearGradient>
<linearGradient id="paint1_linear_320_121" x1="4.07798" y1="4.13769e-07" x2="24.8705" y2="30.1762" gradientUnits="userSpaceOnUse">
<stop stop-color="#E1C1FF"/>
<stop offset="1" stop-color="#FFC368"/>
</linearGradient>
<linearGradient id="paint2_linear_320_121" x1="4.07798" y1="4.13769e-07" x2="24.8705" y2="30.1762" gradientUnits="userSpaceOnUse">
<stop stop-color="#E1C1FF"/>
<stop offset="1" stop-color="#FFC368"/>
</linearGradient>
<linearGradient id="paint3_linear_320_121" x1="4.07798" y1="4.13769e-07" x2="24.8705" y2="30.1762" gradientUnits="userSpaceOnUse">
<stop stop-color="#E1C1FF"/>
<stop offset="1" stop-color="#FFC368"/>
</linearGradient>
</defs>
</svg>
